<?xml version="1.0" standalone="no"?>
<!DOCTYPE svg PUBLIC "-//W3C//DTD SVG 20010904//EN"
 "http://www.w3.org/TR/2001/REC-SVG-20010904/DTD/svg10.dtd">
<svg version="1.0" xmlns="http://www.w3.org/2000/svg"
 width="260.000000pt" height="260.000000pt" viewBox="0 0 260.000000 260.000000"
 preserveAspectRatio="xMidYMid meet">
<metadata>
Created by potrace 1.14, written by Peter Selinger 2001-2017
</metadata>
<g transform="translate(0.000000,260.000000) scale(0.100000,-0.100000)"
fill="#000000" stroke="none">
<path d="M826 2322 c-3 -5 1 -9 9 -9 8 0 12 4 9 9 -3 4 -7 8 -9 8 -2 0 -6 -4
-9 -8z"/>
<path d="M950 2321 c0 -6 4 -13 10 -16 6 -3 7 1 4 9 -7 18 -14 21 -14 7z"/>
<path d="M1474 2307 c2 -14 7 -31 11 -37 7 -11 4 -12 -37 -14 -21 -2 -25 1
-17 11 6 7 9 18 6 25 -4 8 -6 7 -6 -4 -1 -18 -12 -23 -24 -11 -4 3 -1 13 6 22
10 14 10 14 -5 3 -9 -8 -23 -11 -30 -7 -7 3 -3 -2 10 -11 25 -19 28 -31 7 -31
-8 0 -12 4 -10 8 3 4 -2 10 -11 13 -8 3 -12 2 -9 -4 3 -6 3 -11 -2 -11 -36 -6
-54 -5 -60 4 -4 6 -1 7 7 2 9 -6 11 -4 5 5 -6 10 -11 10 -20 -3 -13 -18 -31
-24 -21 -8 10 16 -18 19 -53 5 -31 -13 -33 -13 -20 3 13 17 13 17 -13 0 -15
-9 -31 -17 -35 -17 -4 0 -1 5 7 10 21 14 -5 13 -33 -1 -21 -10 -21 -9 2 10 13
12 19 21 14 21 -5 0 -14 -5 -21 -12 -9 -9 -16 -8 -30 5 -10 9 -22 17 -27 17
-5 0 -1 -6 8 -13 16 -11 15 -13 -13 -24 -16 -6 -28 -7 -24 -2 3 5 1 9 -5 9 -5
0 -13 -4 -16 -10 -3 -5 -11 -10 -18 -10 -6 0 -2 6 9 14 10 8 16 18 11 22 -4 4
-7 2 -7 -4 0 -16 -53 -25 -155 -27 -49 -1 -94 -3 -100 -5 -18 -5 -36 0 -31 8
2 4 -4 8 -15 8 -19 0 -18 -1 3 -18 20 -15 20 -18 5 -18 -10 0 -20 -6 -23 -14
-3 -8 -15 -13 -26 -11 -16 4 -18 2 -8 -10 10 -11 10 -15 1 -15 -7 0 -10 -4 -6
-9 3 -5 -2 -17 -11 -25 -8 -9 -11 -16 -5 -16 14 0 9 -39 -6 -44 -7 -3 -13 -11
-13 -18 0 -9 3 -9 10 2 8 12 10 12 15 -2 4 -10 3 -22 -1 -29 -4 -7 -3 -9 4 -5
10 6 28 -29 24 -46 -1 -4 6 -4 15 -1 11 4 14 3 9 -5 -4 -7 -1 -12 8 -12 8 0
19 -6 23 -12 4 -7 17 -13 28 -13 11 0 19 -5 18 -11 -1 -7 6 -10 17 -7 11 3 20
9 20 13 0 4 11 7 24 6 19 -1 22 -4 14 -14 -8 -9 -13 -10 -18 -2 -5 8 -9 6 -13
-5 -4 -9 -3 -13 3 -10 6 3 10 1 10 -4 0 -6 5 -11 10 -11 6 0 9 5 8 12 -2 6 9
13 25 14 19 2 25 -1 21 -9 -4 -7 -4 -9 0 -5 5 4 18 3 31 -2 20 -8 23 -6 21 13
-2 16 3 23 15 23 14 0 15 -3 7 -13 -6 -8 -8 -16 -4 -20 3 -3 6 -1 6 6 0 7 6
11 13 8 6 -2 21 1 32 6 11 6 32 12 48 13 23 1 27 -2 22 -20 -4 -12 -3 -16 2
-10 9 12 43 15 58 4 25 -18 41 -17 42 1 1 10 -3 19 -8 19 -6 0 -7 -5 -3 -11 4
-7 -1 -10 -12 -7 -36 7 -12 23 36 24 28 0 46 -3 39 -6 -6 -5 -3 -9 10 -13 12
-3 24 0 28 5 4 7 1 8 -8 3 -8 -5 -11 -4 -6 1 8 8 87 14 87 5 0 -2 -8 -10 -17
-18 -10 -8 -1 -5 20 7 32 19 37 19 37 5 0 -10 -5 -13 -12 -9 -7 5 -8 3 -3 -6
6 -10 13 -7 27 11 11 13 17 18 13 12 -3 -7 -1 -13 5 -13 6 0 8 -5 4 -12 -4 -7
-3 -8 5 -4 6 4 9 11 6 16 -3 4 4 10 15 13 15 4 20 0 20 -14 0 -10 4 -19 10
-19 5 0 6 8 3 17 -6 16 -5 16 22 -1 30 -19 30 -19 13 0 -16 18 -15 19 28 19
49 0 51 -2 27 -22 -10 -8 -1 -5 20 7 32 19 37 19 37 5 0 -10 -5 -14 -12 -9 -7
4 -9 3 -5 -1 13 -14 36 -14 31 0 -3 7 0 16 7 21 7 4 10 3 6 -3 -4 -6 0 -14 9
-17 10 -4 13 -2 8 6 -5 8 -2 9 10 5 10 -4 20 -7 22 -7 3 0 3 -4 0 -8 -3 -5 1
-9 9 -9 13 0 13 2 0 17 -13 14 -12 16 5 16 10 0 16 -4 14 -8 -7 -11 4 -10 28
3 15 8 19 8 14 0 -9 -14 0 -14 27 1 19 10 20 9 10 -3 -8 -10 -9 -19 -1 -29 8
-12 9 -12 4 3 -5 16 -2 19 27 21 6 1 15 6 19 11 5 6 8 5 8 -3 0 -7 4 -11 9 -7
11 6 73 -57 63 -65 -10 -7 -13 -62 -3 -56 4 3 8 -1 8 -9 0 -8 -5 -15 -10 -15
-6 0 -6 -5 0 -12 11 -14 10 -42 -2 -72 -5 -12 -5 -17 2 -13 5 3 10 0 10 -9 0
-10 -7 -12 -21 -8 -16 4 -18 3 -7 -5 12 -8 12 -12 2 -25 -8 -9 -10 -16 -5 -16
5 0 2 -5 -6 -10 -11 -7 -11 -10 -2 -10 7 0 10 -5 6 -12 -4 -7 -3 -8 5 -4 6 4
8 12 5 18 -4 7 -2 8 4 4 7 -4 12 -3 12 3 0 5 -5 11 -11 13 -7 2 -6 8 3 16 12
10 14 7 13 -16 -2 -15 -6 -36 -10 -46 -5 -12 -5 -17 2 -13 5 3 10 -1 10 -9 0
-8 -6 -13 -13 -10 -18 7 -29 -13 -15 -27 9 -9 11 -8 8 3 -2 8 -2 12 0 7 3 -4
8 -5 12 -3 4 3 6 -7 5 -22 -2 -41 -3 -42 -21 -35 -15 6 -16 5 -3 -9 8 -9 18
-14 21 -12 3 2 6 -3 6 -12 0 -10 -7 -12 -21 -8 -16 4 -18 3 -7 -5 12 -8 12
-12 2 -25 -8 -9 -10 -16 -5 -16 5 0 2 -5 -6 -10 -12 -7 -10 -9 8 -7 23 1 30
13 11 19 -7 2 -6 8 3 15 11 10 14 7 12 -15 -2 -41 -3 -44 -13 -37 -5 3 -13 0
-17 -6 -4 -8 -3 -9 4 -5 7 4 12 2 12 -4 0 -6 4 -8 10 -5 6 3 7 -1 4 -9 -3 -9
-10 -14 -14 -11 -5 3 -12 0 -16 -6 -4 -8 -3 -9 4 -5 7 4 12 2 12 -4 0 -6 4 -9
8 -6 5 3 9 -2 9 -10 0 -10 -6 -13 -16 -9 -24 10 -66 17 -60 10 4 -3 17 -8 29
-10 30 -6 35 -12 21 -28 -9 -11 -8 -17 4 -27 9 -7 15 -8 15 -2 0 6 -5 12 -11
14 -7 2 -6 8 3 15 11 10 14 7 12 -15 -2 -41 -3 -42 -21 -35 -15 6 -16 5 -3 -9
8 -9 18 -14 21 -12 3 2 6 -4 6 -12 0 -8 -6 -13 -13 -10 -8 3 -16 0 -20 -6 -5
-7 -2 -8 6 -3 10 6 12 4 6 -10 -5 -14 -4 -15 7 -7 10 9 13 5 11 -16 -2 -41 -3
-44 -14 -37 -6 3 -7 -1 -4 -9 3 -9 9 -14 13 -11 4 2 8 -2 8 -10 0 -16 -9 -19
-21 -8 -10 11 -37 12 -30 2 3 -5 10 -7 15 -4 5 4 12 -1 15 -9 3 -9 9 -14 13
-12 6 4 7 -26 2 -58 0 -4 -13 0 -28 10 -23 14 -26 15 -15 1 8 -9 10 -22 6 -29
-6 -10 -3 -9 9 1 12 9 17 10 17 2 0 -7 4 -10 8 -7 5 3 9 -2 9 -10 0 -8 -6 -13
-13 -10 -8 3 -16 1 -19 -5 -4 -5 -3 -8 2 -7 4 2 10 -2 11 -7 2 -6 8 -15 14
-22 13 -17 0 -36 -20 -28 -9 3 -13 3 -9 -1 4 -4 1 -14 -5 -23 -10 -13 -10 -14
2 -3 8 6 21 12 29 12 13 -1 12 -4 -4 -17 -16 -13 -17 -15 -2 -10 9 4 17 2 17
-3 0 -6 -5 -10 -10 -10 -25 0 56 -116 91 -130 16 -7 26 -17 22 -23 -4 -6 -1
-7 8 -1 20 12 69 14 69 3 0 -6 7 -3 16 5 21 22 59 42 50 27 -4 -6 -5 -11 -1
-11 3 0 10 11 15 25 5 14 16 25 24 25 8 0 15 8 15 17 1 43 7 89 14 100 4 6 3
14 -2 17 -5 4 -8 14 -6 24 2 9 4 21 4 25 1 5 5 6 10 3 4 -3 7 8 5 24 -2 18 1
30 8 30 6 0 8 3 5 6 -4 4 -12 2 -19 -4 -10 -8 -13 -3 -14 24 0 37 4 41 26 22
12 -11 12 -10 0 5 -12 16 -12 20 1 28 8 5 9 9 3 9 -5 0 -15 -5 -20 -10 -8 -8
-10 -2 -9 17 4 48 17 83 34 93 9 5 11 10 4 10 -6 0 -15 -4 -18 -10 -3 -5 -11
-10 -17 -10 -7 0 -6 5 1 14 8 10 9 16 2 21 -13 7 -8 51 5 48 5 -1 11 -9 12
-19 3 -10 0 -14 -7 -10 -6 4 -11 3 -11 -3 0 -5 9 -9 19 -8 18 1 19 18 0 42
-11 15 -6 40 14 59 23 23 22 33 -1 13 -27 -25 -38 -21 -38 13 0 30 9 39 21 20
3 -5 12 -10 18 -10 7 0 4 5 -5 11 -21 12 -23 26 -5 32 6 2 3 3 -9 1 -17 -3
-21 1 -20 24 1 15 9 43 19 62 10 19 12 29 5 22 -17 -17 -33 -15 -19 2 8 10 9
16 2 21 -13 7 -8 51 5 48 5 -1 11 -9 12 -19 3 -10 0 -14 -7 -10 -6 4 -11 3
-11 -3 0 -5 9 -9 19 -8 18 1 19 18 0 42 -11 15 -6 40 14 59 23 23 22 33 -1 13
-27 -25 -38 -21 -38 13 0 30 9 39 21 20 3 -5 12 -10 18 -10 7 0 4 5 -5 11 -21
12 -23 26 -5 32 6 2 2 2 -10 1 -19 -4 -21 0 -18 27 2 17 11 45 20 62 9 18 11
27 3 19 -17 -17 -33 -15 -19 2 8 10 9 16 2 21 -13 7 -8 51 5 48 5 -1 11 -9 12
-19 3 -10 0 -14 -7 -10 -6 4 -11 3 -11 -3 0 -5 9 -9 19 -8 18 1 19 16 1 42
-11 17 -9 55 2 55 6 0 8 3 5 6 -4 4 -12 2 -20 -4 -10 -9 -13 -6 -12 11 0 12 4
28 8 35 5 7 3 12 -4 12 -8 0 -9 3 0 13 6 8 7 17 3 21 -10 10 -10 56 0 56 4 0
8 8 8 18 0 14 -2 15 -10 2 -5 -8 -10 -10 -10 -4 0 6 10 19 23 27 l22 16 -24
-6 c-19 -5 -23 -3 -18 9 3 9 0 21 -6 27 -9 9 -8 11 4 6 10 -4 16 0 16 9 0 8
-4 13 -9 10 -12 -8 -48 25 -48 43 0 7 -7 13 -15 13 -8 0 -15 4 -15 8 0 7 -21
12 -67 15 -12 0 -19 5 -17 9 3 4 -4 8 -15 8 -12 0 -21 -4 -21 -8 0 -5 -7 -9
-15 -9 -13 0 -12 4 2 20 15 16 12 16 -21 -4 -22 -13 -36 -18 -32 -11 9 15 1
15 -25 1 -17 -9 -20 -7 -17 8 2 12 -3 18 -15 16 -13 -1 -17 4 -12 15 5 13 3
14 -6 5 -15 -15 -3 -34 19 -26 13 5 14 3 6 -6 -12 -13 -87 -23 -79 -11 3 5 -2
10 -10 13 -9 4 -12 1 -9 -7 3 -7 -2 -13 -10 -13 -8 0 -13 4 -10 9 3 4 0 8 -6
8 -6 0 -9 4 -6 9 3 5 -1 12 -9 15 -13 4 -14 2 -5 -14 6 -11 7 -21 3 -21 -27
-5 -61 -4 -58 1 2 3 -6 12 -18 19 -18 11 -20 11 -9 0 16 -17 15 -26 -3 -26 -8
0 -12 4 -10 8 3 4 -2 10 -11 13 -8 3 -12 2 -9 -4 6 -10 5 -11 -33 -15 -16 -2
-21 2 -18 11 3 9 0 11 -11 7 -12 -5 -14 -3 -8 7 5 8 4 11 -3 6 -6 -4 -9 -12
-6 -20 3 -9 -6 -12 -30 -12 -19 0 -32 4 -30 8 3 5 0 8 -7 8 -10 0 -10 3 -1 12
7 7 12 16 12 22 0 5 -6 1 -14 -9 -8 -11 -12 -24 -9 -30 2 -7 -3 -12 -11 -12
-8 0 -13 4 -10 8 2 4 0 9 -6 11 -6 2 -12 14 -15 27 -2 13 -7 26 -10 30 -4 3
-4 -7 -1 -22z m-379 -47 c-3 -5 -12 -10 -18 -10 -7 0 -6 4 3 10 19 12 23 12
15 0z m160 0 c-3 -5 -12 -10 -18 -10 -7 0 -6 4 3 10 19 12 23 12 15 0z m-365
-314 c0 -3 -4 -8 -10 -11 -5 -3 -10 -1 -10 4 0 6 5 11 10 11 6 0 10 -2 10 -4z
m45 -24 c-2 -3 -12 -1 -22 2 -15 6 -15 9 -3 16 13 8 35 -8 25 -18z m75 24 c0
-3 -4 -8 -10 -11 -5 -3 -10 -1 -10 4 0 6 5 11 10 11 6 0 10 -2 10 -4z m120 0
c0 -3 -4 -8 -10 -11 -5 -3 -10 -1 -10 4 0 6 5 11 10 11 6 0 10 -2 10 -4z m814
-32 c5 -14 4 -15 -9 -4 -17 14 -19 20 -6 20 5 0 12 -7 15 -16z m326 -28 c0 -3
-4 -8 -10 -11 -5 -3 -10 -1 -10 4 0 6 5 11 10 11 6 0 10 -2 10 -4z m0 -320 c0
-3 -4 -8 -10 -11 -5 -3 -10 -1 -10 4 0 6 5 11 10 11 6 0 10 -2 10 -4z m0 -320
c0 -3 -4 -8 -10 -11 -5 -3 -10 -1 -10 4 0 6 5 11 10 11 6 0 10 -2 10 -4z m0
-320 c0 -3 -4 -8 -10 -11 -5 -3 -10 -1 -10 4 0 6 5 11 10 11 6 0 10 -2 10 -4z"/>
<path d="M874 2308 c6 -26 18 -48 29 -48 5 0 3 8 -6 18 -8 9 -16 21 -15 25 0
5 -3 11 -5 14 -3 3 -4 -1 -3 -9z"/>
<path d="M909 2303 c-13 -16 -12 -17 4 -4 9 7 17 15 17 17 0 8 -8 3 -21 -13z"/>
<path d="M1281 2301 c-8 -5 -9 -11 -3 -15 5 -3 12 1 16 9 6 17 6 18 -13 6z"/>
<path d="M1505 2300 c-3 -6 1 -7 9 -4 18 7 21 14 7 14 -6 0 -13 -4 -16 -10z"/>
<path d="M1610 2306 c0 -2 7 -7 16 -10 8 -3 12 -2 9 4 -6 10 -25 14 -25 6z"/>
<path d="M1685 2300 c-3 -6 1 -7 9 -4 18 7 21 14 7 14 -6 0 -13 -4 -16 -10z"/>
<path d="M1765 2299 c-4 -6 -14 -8 -22 -4 -13 4 -14 3 -3 -10 7 -9 13 -14 14
-13 1 2 8 11 15 21 7 9 11 17 8 17 -3 0 -9 -5 -12 -11z"/>
<path d="M796 2292 c-2 -4 -1 -14 4 -22 7 -11 9 -9 7 8 -1 24 -3 26 -11 14z"/>
<path d="M1238 2293 c7 -3 16 -2 19 1 4 3 -2 6 -13 5 -11 0 -14 -3 -6 -6z"/>
<path d="M1323 2280 c6 -11 15 -20 19 -20 12 0 -3 28 -18 34 -11 4 -12 2 -1
-14z"/>
<path d="M1580 2289 c0 -5 -4 -8 -9 -4 -5 3 -13 0 -17 -6 -4 -8 -3 -9 4 -5 7
4 12 2 12 -3 0 -20 16 -11 17 9 1 11 0 20 -3 20 -2 0 -4 -5 -4 -11z"/>
<path d="M1850 2296 c0 -2 7 -9 15 -16 9 -7 15 -8 15 -2 0 5 -7 12 -15 16 -8
3 -15 4 -15 2z"/>
<path d="M754 2268 l-19 -23 23 19 c21 18 27 26 19 26 -2 0 -12 -10 -23 -22z"/>
<path d="M925 2281 c-6 -11 9 -23 19 -14 9 9 7 23 -3 23 -6 0 -12 -4 -16 -9z"/>
<path d="M965 2280 c-3 -6 1 -7 9 -4 18 7 21 14 7 14 -6 0 -13 -4 -16 -10z"/>
<path d="M1035 2280 c3 -5 8 -10 11 -10 2 0 4 5 4 10 0 6 -5 10 -11 10 -5 0
-7 -4 -4 -10z"/>
<path d="M1170 2279 c0 -5 5 -7 10 -4 6 3 10 8 10 11 0 2 -4 4 -10 4 -5 0 -10
-5 -10 -11z"/>
<path d="M1450 2275 c0 -8 4 -15 10 -15 5 0 7 7 4 15 -4 8 -8 15 -10 15 -2 0
-4 -7 -4 -15z"/>
<path d="M1650 2275 c0 -8 4 -15 8 -15 5 0 9 7 9 15 0 8 -4 15 -9 15 -4 0 -8
-7 -8 -15z"/>
<path d="M1995 2280 c3 -5 8 -10 11 -10 2 0 4 5 4 10 0 6 -5 10 -11 10 -5 0
-7 -4 -4 -10z"/>
<path d="M2135 2280 c-3 -5 -1 -10 4 -10 6 0 11 5 11 10 0 6 -2 10 -4 10 -3 0
-8 -4 -11 -10z"/>
<path d="M1770 2270 c0 -5 5 -10 11 -10 5 0 7 5 4 10 -3 6 -8 10 -11 10 -2 0
-4 -4 -4 -10z"/>
<path d="M1890 2270 c0 -5 5 -10 11 -10 5 0 7 5 4 10 -3 6 -8 10 -11 10 -2 0
-4 -4 -4 -10z"/>
<path d="M2220 2206 c0 -2 9 -6 20 -9 11 -3 18 -1 14 4 -5 9 -34 13 -34 5z"/>
<path d="M586 2158 c3 -5 10 -6 15 -3 13 9 11 12 -6 12 -8 0 -12 -4 -9 -9z"/>
<path d="M576 2038 c3 -5 10 -6 15 -3 13 9 11 12 -6 12 -8 0 -12 -4 -9 -9z"/>
<path d="M615 2041 c-3 -5 -2 -12 3 -15 5 -3 9 1 9 9 0 17 -3 19 -12 6z"/>
<path d="M2275 2040 c3 -5 8 -10 11 -10 2 0 4 5 4 10 0 6 -5 10 -11 10 -5 0
-7 -4 -4 -10z"/>
<path d="M2260 2020 c0 -6 7 -10 15 -10 8 0 15 2 15 4 0 2 -7 6 -15 10 -8 3
-15 1 -15 -4z"/>
<path d="M651 2004 c0 -11 3 -14 6 -6 3 7 2 16 -1 19 -3 4 -6 -2 -5 -13z"/>
<path d="M600 2006 c0 -2 8 -10 18 -17 15 -13 16 -12 3 4 -13 16 -21 21 -21
13z"/>
<path d="M452 1981 c2 -5 -6 -17 -17 -26 -20 -16 -20 -16 2 -5 27 13 36 27 23
35 -6 4 -9 2 -8 -4z"/>
<path d="M594 1973 c21 -25 36 -30 36 -11 0 6 -3 8 -7 5 -3 -4 -16 1 -27 10
-21 18 -21 18 -2 -4z"/>
<path d="M2275 1980 c-3 -5 -1 -10 4 -10 6 0 11 5 11 10 0 6 -2 10 -4 10 -3 0
-8 -4 -11 -10z"/>
<path d="M561 1964 c0 -11 3 -14 6 -6 3 7 2 16 -1 19 -3 4 -6 -2 -5 -13z"/>
<path d="M664 1966 c11 -9 24 -16 30 -16 12 0 7 5 -24 19 -24 11 -24 11 -6 -3z"/>
<path d="M444 1945 c-40 -19 -92 -79 -86 -98 2 -5 -4 -7 -12 -4 -14 6 -17 -16
-3 -29 14 -14 7 -26 -8 -14 -13 11 -14 10 -9 -5 5 -11 3 -16 -2 -12 -6 3 -11
-3 -11 -14 -1 -10 2 -19 8 -19 5 0 8 5 6 11 -1 6 4 14 11 16 9 4 10 -1 2 -22
-13 -33 -13 -38 1 -29 8 4 7 0 -1 -15 -6 -12 -16 -18 -22 -15 -7 4 -8 3 -4 -4
4 -6 13 -9 21 -5 11 4 13 1 9 -10 -3 -9 -12 -13 -20 -10 -8 3 -14 0 -14 -7 0
-6 5 -8 10 -5 6 3 10 1 10 -5 0 -6 5 -8 12 -4 7 4 8 3 4 -5 -4 -6 -12 -9 -17
-6 -5 3 -6 -1 -3 -9 3 -9 9 -14 13 -11 4 2 8 -2 8 -10 0 -17 -13 -20 -22 -5
-3 6 -12 10 -18 9 -9 0 -8 -2 1 -6 6 -2 9 -10 6 -15 -5 -7 -2 -8 6 -3 10 6 12
4 6 -10 -5 -14 -4 -15 7 -7 10 9 13 5 11 -16 -2 -44 -3 -45 -21 -31 -15 13
-15 12 -3 -8 8 -12 17 -20 20 -18 4 2 7 -2 7 -10 0 -18 -9 -19 -23 -5 -7 7
-11 6 -11 -4 0 -8 4 -13 9 -10 4 3 8 0 8 -6 0 -6 4 -9 8 -6 4 2 7 -7 6 -22 -2
-40 -3 -44 -12 -38 -4 2 -16 -2 -27 -10 -10 -8 -14 -14 -9 -14 6 0 15 5 22 12
9 9 12 9 12 -1 0 -7 4 -10 8 -7 5 3 9 -1 9 -10 0 -9 -7 -13 -21 -9 -12 3 -15
2 -8 -1 19 -9 14 -24 -5 -18 -15 5 -15 4 -3 -4 8 -7 19 -7 25 -2 7 6 10 0 9
-18 -2 -41 -3 -44 -14 -37 -6 3 -7 -1 -4 -9 3 -9 9 -14 13 -11 4 2 8 -3 8 -11
0 -8 -6 -13 -13 -10 -8 3 -11 0 -7 -10 5 -13 -8 -19 -30 -15 -5 1 -5 -3 -2 -9
5 -8 14 -7 29 3 21 14 22 13 20 -12 -2 -39 -3 -40 -23 -34 -10 3 -22 0 -25 -5
-4 -6 2 -8 14 -5 12 3 20 0 20 -6 0 -7 4 -10 8 -7 5 3 9 -1 9 -9 0 -18 -3 -18
-27 -5 -16 8 -18 8 -14 -5 3 -8 11 -12 17 -8 7 4 8 0 3 -12 -5 -14 -4 -15 7
-7 10 9 13 5 11 -16 -2 -41 -3 -44 -14 -37 -6 3 -7 -1 -4 -9 3 -9 10 -13 15
-10 5 3 4 -7 -1 -21 -13 -34 -13 -55 0 -35 5 8 10 11 10 7 0 -4 -8 -20 -17
-35 -17 -26 -17 -26 0 -13 16 13 16 11 3 -20 -14 -36 -11 -63 6 -53 6 4 6 -2
-1 -14 -14 -27 -15 -54 -1 -32 5 8 10 11 10 7 0 -4 -8 -20 -17 -35 -17 -26
-17 -26 0 -13 16 13 16 11 4 -20 -8 -19 -12 -46 -11 -61 2 -16 -2 -28 -8 -28
-6 0 -8 -3 -5 -6 4 -4 12 -2 19 4 11 8 13 -4 13 -58 0 -37 -3 -66 -7 -63 -5 2
-8 -1 -8 -6 0 -6 5 -11 10 -11 6 0 10 -5 10 -11 0 -6 -9 -8 -22 -4 -20 5 -21
4 -5 -5 9 -6 24 -25 33 -43 30 -64 37 -73 62 -85 15 -7 30 -12 36 -12 5 0 19
-9 31 -20 17 -16 22 -17 22 -6 0 8 -4 13 -9 10 -4 -3 -8 -1 -8 4 0 6 11 9 24
8 17 -1 21 -5 15 -12 -12 -14 30 -11 59 5 17 9 22 8 27 -9 3 -11 3 -25 -1 -31
-5 -8 -3 -9 5 -4 7 4 11 18 8 31 -3 19 -1 22 8 14 10 -8 15 -8 20 1 6 8 10 8
16 -2 6 -10 13 -10 31 -2 20 9 27 8 37 -6 10 -14 11 -14 7 0 -2 9 2 16 10 16
10 0 12 -7 8 -21 -3 -12 -2 -16 3 -10 9 12 43 15 58 4 25 -18 41 -17 42 1 1
10 -3 19 -8 19 -6 0 -7 -5 -3 -11 4 -7 0 -10 -10 -7 -36 7 -13 23 34 24 28 0
46 -3 39 -6 -6 -5 -3 -9 10 -13 12 -3 24 0 28 5 4 7 1 8 -8 3 -8 -5 -11 -4 -6
1 8 8 87 14 87 5 0 -2 -8 -10 -17 -18 -10 -8 -1 -5 20 7 32 19 37 19 37 5 0
-10 -5 -13 -12 -9 -7 5 -8 3 -3 -6 6 -10 13 -7 27 11 11 13 17 18 13 11 -3 -6
-1 -12 5 -12 6 0 9 -4 6 -8 -3 -5 1 -9 9 -9 11 0 12 4 4 14 -12 14 -12 14 39
17 23 1 32 -3 32 -14 0 -12 2 -12 9 -2 4 8 28 15 52 17 27 2 38 0 29 -5 -8 -5
-17 -7 -20 -5 -3 2 -7 -6 -7 -18 -2 -15 0 -18 6 -8 6 9 11 10 15 2 4 -6 12
-11 19 -11 6 0 2 7 -9 15 -17 13 -17 14 -2 15 9 0 19 -4 22 -9 12 -19 42 -18
43 0 1 11 -3 19 -8 19 -6 0 -7 -5 -3 -11 4 -7 0 -10 -10 -7 -36 7 -13 23 34
24 28 0 46 -3 39 -6 -6 -5 -3 -9 10 -13 12 -3 24 0 28 5 4 7 1 8 -8 3 -8 -5
-11 -4 -6 1 5 5 22 9 38 10 25 1 29 -2 24 -20 -4 -12 -3 -16 2 -10 9 12 43 15
58 4 25 -18 41 -17 42 1 1 10 -3 19 -8 19 -6 0 -7 -5 -3 -11 4 -7 0 -10 -10
-7 -32 6 -21 23 16 23 30 1 35 -2 26 -12 -6 -8 -8 -16 -4 -20 3 -3 6 -2 6 4 0
6 11 11 25 11 13 0 23 -4 21 -7 -3 -4 5 -8 16 -8 20 -2 20 -1 2 12 -15 12 -16
15 -4 16 8 1 25 3 38 4 16 2 22 -3 23 -19 0 -21 1 -21 11 2 6 12 15 22 20 22
5 0 6 -4 3 -10 -3 -5 -1 -10 4 -10 6 0 11 4 11 9 0 4 11 7 24 6 13 -2 29 1 36
5 17 11 42 1 33 -13 -3 -6 -1 -7 6 -3 6 4 9 12 5 17 -3 5 10 25 30 43 19 19
32 37 29 40 -3 3 -1 11 4 18 6 7 9 21 8 31 -2 9 1 15 6 11 5 -3 9 0 9 5 0 6
-5 11 -11 11 -5 0 -8 3 -6 8 3 4 0 18 -6 32 -5 14 -11 32 -13 40 -2 8 -8 16
-13 18 -6 2 -27 14 -46 28 -20 13 -41 21 -47 18 -6 -4 -8 2 -4 17 3 13 3 18 0
12 -9 -20 -27 -15 -19 5 5 13 4 14 -6 5 -9 -9 -9 -16 -1 -25 8 -11 7 -14 -9
-15 -12 -1 -17 3 -13 9 7 11 -31 7 -70 -8 -14 -5 -17 -4 -12 4 5 8 0 12 -13
12 -11 0 -23 -4 -26 -10 -3 -5 -12 -10 -18 -10 -7 0 -6 4 3 10 22 14 -6 13
-33 -2 -20 -10 -21 -10 -9 5 15 17 8 37 -11 36 -9 0 -9 -2 1 -6 6 -2 12 -9 12
-15 0 -5 -6 -8 -12 -5 -7 2 -28 -2 -47 -9 -31 -13 -33 -13 -20 3 13 17 13 17
-13 0 -15 -9 -31 -17 -35 -17 -4 0 -1 5 7 10 22 14 -5 13 -32 -1 -12 -7 -18
-7 -14 -1 10 17 -17 20 -53 6 -31 -13 -33 -13 -20 3 13 17 13 17 -13 0 -29
-18 -53 -24 -28 -6 11 8 8 9 -15 4 -44 -11 -85 -13 -80 -4 3 4 -2 9 -10 12 -9
4 -12 1 -9 -7 3 -7 -2 -13 -10 -13 -8 0 -13 4 -10 9 3 4 0 8 -6 8 -6 0 -9 4
-6 8 2 4 -4 14 -15 20 -19 12 -19 12 -3 -13 9 -14 12 -26 8 -26 -32 -5 -62 -4
-58 2 2 4 -3 10 -12 13 -8 3 -13 10 -9 15 3 5 1 12 -4 15 -10 7 -9 -20 2 -30
11 -12 8 -21 -8 -21 -8 0 -12 3 -10 7 2 3 -6 12 -18 20 -20 12 -21 12 -8 -3
14 -18 13 -19 -31 -21 -15 -1 -24 2 -22 6 3 4 1 8 -5 8 -6 0 -8 8 -5 18 5 13
4 14 -4 3 -6 -8 -8 -19 -6 -26 3 -6 -2 -12 -10 -12 -8 0 -12 5 -9 10 4 7 -1 7
-13 2 -30 -12 -58 -13 -66 -1 -6 8 -11 7 -17 -3 -6 -10 -10 -10 -16 -1 -6 9
-10 9 -16 -1 -7 -11 -9 -10 -9 4 0 9 0 20 1 23 0 4 -5 10 -12 15 -14 8 -39 -7
-39 -24 0 -6 7 -2 16 9 14 17 15 17 10 1 -3 -10 -2 -15 4 -12 6 3 7 -1 4 -9
-4 -11 -11 -13 -23 -6 -12 6 -22 5 -31 -3 -10 -10 -11 -9 -5 2 6 10 4 13 -7 9
-8 -4 -21 -2 -29 3 -12 7 -12 10 0 21 11 11 13 11 6 -1 -6 -10 -4 -12 4 -7 6
4 18 3 25 -3 9 -8 13 -7 13 4 0 8 -4 12 -9 9 -7 -5 -12 10 -9 29 0 4 -4 7 -10
7 -6 0 -9 -6 -6 -13 3 -8 -1 -14 -8 -14 -7 0 -11 6 -8 14 3 7 0 13 -7 13 -6 0
-8 -4 -5 -10 3 -5 1 -10 -4 -10 -10 0 -15 14 -12 33 0 4 -4 7 -11 7 -9 0 -9 3
0 12 8 8 8 17 0 31 -9 17 -8 19 8 13 10 -4 15 -4 11 0 -4 4 1 16 10 26 12 13
13 18 4 16 -7 -2 -16 3 -19 11 -3 9 0 11 8 6 9 -5 11 -4 6 4 -10 16 -25 4 -23
-19 1 -10 5 -16 11 -13 5 4 6 1 2 -6 -5 -7 -11 -9 -14 -6 -10 10 -10 65 -1 71
5 3 9 13 9 22 0 13 -2 14 -8 4 -13 -19 -8 80 5 103 5 11 8 26 6 33 -3 6 1 12
8 12 7 0 9 3 6 6 -4 4 -12 2 -20 -4 -10 -9 -13 -4 -12 23 0 18 4 37 9 42 5 5
6 2 1 -6 -5 -9 -4 -12 2 -8 6 4 9 20 7 36 -2 17 2 31 9 34 6 2 3 3 -9 1 -17
-3 -21 1 -20 24 1 15 9 43 19 62 10 19 12 29 5 22 -17 -17 -33 -15 -19 2 8 10
9 16 2 21 -13 7 -10 38 4 45 5 3 11 -3 13 -14 3 -11 0 -16 -7 -12 -6 4 -11 3
-11 -3 0 -5 9 -9 19 -8 18 1 19 17 1 42 -11 15 -8 49 4 58 6 5 2 6 -10 3 -14
-4 -21 -2 -21 8 0 8 7 12 16 10 14 -4 14 -3 0 7 -14 10 -15 17 -6 37 8 18 8
25 -2 31 -10 6 -10 10 -2 16 8 5 9 11 2 19 -12 14 -3 58 10 50 5 -3 9 -12 9
-20 0 -8 -4 -12 -10 -9 -5 3 -10 2 -10 -4 0 -5 9 -9 19 -8 11 0 19 4 17 7 -1
3 -8 18 -16 34 -12 23 -12 30 -2 33 6 3 12 10 12 16 0 8 -4 7 -12 -1 -16 -16
-33 -15 -19 1 8 10 7 17 -1 25 -8 8 -5 9 11 5 12 -3 21 -1 21 6 0 6 -3 10 -7
10 -29 -5 -32 2 -17 39 12 30 12 34 0 19 -13 -16 -14 -16 -12 10 1 15 5 34 9
41 5 7 3 12 -4 12 -7 0 -9 3 -6 7 4 3 1 13 -6 21 -10 13 -9 14 3 7 8 -4 -5 10
-28 33 -36 33 -39 40 -20 35 12 -3 20 -3 17 1 -4 4 -20 9 -35 10 -16 2 -33 4
-37 5 -5 0 -5 7 -1 14 6 9 4 9 -7 1 -15 -11 -28 -12 -44 -3 -5 2 -29 -4 -51
-16z m226 -539 c0 -3 -4 -8 -10 -11 -5 -3 -10 -1 -10 4 0 6 5 11 10 11 6 0 10
-2 10 -4z m0 -240 c0 -3 -4 -8 -10 -11 -5 -3 -10 -1 -10 4 0 6 5 11 10 11 6 0
10 -2 10 -4z m0 -120 c0 -3 -4 -8 -10 -11 -5 -3 -10 -1 -10 4 0 6 5 11 10 11
6 0 10 -2 10 -4z m-329 -179 c-10 -9 -11 -8 -5 6 3 10 9 15 12 12 3 -3 0 -11
-7 -18z m0 -160 c-10 -9 -11 -8 -5 6 3 10 9 15 12 12 3 -3 0 -11 -7 -18z m343
-22 c-4 -8 -10 -15 -15 -15 -4 0 -6 7 -3 15 4 8 10 15 15 15 4 0 6 -7 3 -15z
m-334 -5 c0 -5 -5 -10 -11 -10 -5 0 -7 5 -4 10 3 6 8 10 11 10 2 0 4 -4 4 -10z
m1065 -20 c-3 -5 -12 -10 -18 -10 -7 0 -6 4 3 10 19 12 23 12 15 0z m160 0
c-3 -5 -12 -10 -18 -10 -7 0 -6 4 3 10 19 12 23 12 15 0z m-1005 -314 c0 -3
-4 -8 -10 -11 -5 -3 -10 -1 -10 4 0 6 5 11 10 11 6 0 10 -2 10 -4z m240 0 c0
-3 -4 -8 -10 -11 -5 -3 -10 -1 -10 4 0 6 5 11 10 11 6 0 10 -2 10 -4z m720 0
c0 -3 -4 -8 -10 -11 -5 -3 -10 -1 -10 4 0 6 5 11 10 11 6 0 10 -2 10 -4z m120
0 c0 -3 -4 -8 -10 -11 -5 -3 -10 -1 -10 4 0 6 5 11 10 11 6 0 10 -2 10 -4z"/>
<path d="M2290 1960 c-9 -6 -10 -10 -3 -10 6 0 15 5 18 10 8 12 4 12 -15 0z"/>
<path d="M385 1940 c-3 -6 1 -7 9 -4 18 7 21 14 7 14 -6 0 -13 -4 -16 -10z"/>
<path d="M2260 1940 c0 -5 5 -10 11 -10 5 0 7 5 4 10 -3 6 -8 10 -11 10 -2 0
-4 -4 -4 -10z"/>
<path d="M1019 1923 c-7 -10 -9 -15 -5 -11 5 4 15 3 23 -3 9 -9 13 -8 13 0 0
6 -5 11 -11 11 -5 0 -7 5 -4 10 10 17 -2 11 -16 -7z"/>
<path d="M1055 1930 c3 -5 8 -10 11 -10 2 0 4 5 4 10 0 6 -5 10 -11 10 -5 0
-7 -4 -4 -10z"/>
<path d="M1207 1929 c7 -9 10 -18 7 -22 -3 -3 4 -3 17 0 16 5 19 8 9 11 -8 3
-22 10 -30 16 -13 9 -13 9 -3 -5z"/>
<path d="M1297 1923 c3 -7 6 -13 8 -13 2 0 5 6 8 13 3 8 -1 14 -8 14 -7 0 -11
-6 -8 -14z"/>
<path d="M1535 1914 c0 -25 10 -23 17 4 3 10 0 19 -6 19 -6 0 -11 -10 -11 -23z"/>
<path d="M626 1922 c-3 -5 1 -9 9 -9 8 0 15 4 15 9 0 4 -4 8 -9 8 -6 0 -12 -4
-15 -8z"/>
<path d="M714 1915 c3 -23 12 -26 13 -5 1 11 -2 20 -7 20 -4 0 -7 -7 -6 -15z"/>
<path d="M1746 1922 c-3 -4 4 -9 15 -9 23 -2 25 3 4 10 -8 4 -16 3 -19 -1z"/>
<path d="M1857 1916 c-4 -9 -11 -14 -17 -11 -5 3 -10 1 -10 -4 0 -15 13 -14
29 2 11 10 12 8 6 -12 -5 -17 -4 -22 6 -18 8 2 13 9 12 15 -2 7 4 9 14 5 14
-6 13 -9 -7 -25 -17 -14 -19 -18 -6 -18 9 0 16 5 16 11 0 5 4 8 10 4 5 -3 7
-12 3 -20 -3 -8 -1 -15 4 -15 19 0 8 56 -15 80 -14 14 -21 19 -18 13 4 -7 3
-13 -3 -13 -5 0 -11 5 -13 12 -3 7 -7 5 -11 -6z"/>
<path d="M357 1890 c-15 -16 -23 -30 -19 -30 5 0 18 14 30 30 13 17 21 30 19
30 -2 0 -16 -13 -30 -30z"/>
<path d="M1270 1910 c-9 -6 -10 -10 -3 -10 6 0 15 5 18 10 8 12 4 12 -15 0z"/>
<path d="M750 1899 c0 -5 5 -7 10 -4 6 3 10 8 10 11 0 2 -4 4 -10 4 -5 0 -10
-5 -10 -11z"/>
<path d="M1342 1902 c-8 -6 -2 -9 18 -9 20 0 26 3 18 9 -7 4 -15 8 -18 8 -3 0
-11 -4 -18 -8z"/>
<path d="M1582 1902 c-8 -6 -2 -9 18 -9 20 0 26 3 18 9 -7 4 -15 8 -18 8 -3 0
-11 -4 -18 -8z"/>
<path d="M1666 1898 c3 -5 10 -6 15 -3 13 9 11 12 -6 12 -8 0 -12 -4 -9 -9z"/>
<path d="M1795 1880 c3 -5 8 -10 11 -10 2 0 4 5 4 10 0 6 -5 10 -11 10 -5 0
-7 -4 -4 -10z"/>
<path d="M1835 1861 c-3 -5 -2 -12 3 -15 5 -3 9 1 9 9 0 17 -3 19 -12 6z"/>
<path d="M1883 1823 c9 -2 14 -9 11 -15 -4 -7 -2 -8 5 -4 15 10 4 26 -17 25
-15 -1 -15 -2 1 -6z"/>
<path d="M666 1802 c-3 -5 1 -9 9 -9 8 0 15 4 15 9 0 4 -4 8 -9 8 -6 0 -12 -4
-15 -8z"/>
<path d="M1905 1790 c-3 -6 0 -12 7 -15 17 -7 21 -45 5 -41 -7 1 -9 1 -4 -1 4
-3 4 -10 0 -16 -4 -7 1 -6 10 2 19 15 17 48 -2 61 -11 6 -11 9 0 13 9 3 10 6
2 6 -6 1 -15 -4 -18 -9z"/>
<path d="M2307 1779 c7 -7 15 -10 18 -7 3 3 -2 9 -12 12 -14 6 -15 5 -6 -5z"/>
<path d="M690 1755 c0 -8 2 -15 4 -15 2 0 6 7 10 15 3 8 1 15 -4 15 -6 0 -10
-7 -10 -15z"/>
<path d="M1875 1760 c3 -5 8 -10 11 -10 2 0 4 5 4 10 0 6 -5 10 -11 10 -5 0
-7 -4 -4 -10z"/>
<path d="M2290 1720 c-9 -6 -10 -10 -3 -10 6 0 15 5 18 10 8 12 4 12 -15 0z"/>
<path d="M276 1702 c-3 -5 1 -9 9 -9 8 0 12 4 9 9 -3 4 -7 8 -9 8 -2 0 -6 -4
-9 -8z"/>
<path d="M2260 1700 c0 -5 5 -10 11 -10 5 0 7 5 4 10 -3 6 -8 10 -11 10 -2 0
-4 -4 -4 -10z"/>
<path d="M1895 1689 c-4 -6 -5 -12 -2 -15 2 -3 7 2 10 11 7 17 1 20 -8 4z"/>
<path d="M704 1638 l-19 -23 23 19 c21 18 27 26 19 26 -2 0 -12 -10 -23 -22z"/>
<path d="M2260 1620 c0 -5 5 -10 11 -10 5 0 7 5 4 10 -3 6 -8 10 -11 10 -2 0
-4 -4 -4 -10z"/>
<path d="M2293 1565 c-3 -9 -3 -18 -1 -21 3 -3 8 4 11 16 6 23 -1 27 -10 5z"/>
<path d="M1890 1559 c0 -5 5 -7 10 -4 6 3 10 8 10 11 0 2 -4 4 -10 4 -5 0 -10
-5 -10 -11z"/>
<path d="M300 1546 c0 -2 9 -6 20 -9 11 -3 20 -1 20 4 0 5 -9 9 -20 9 -11 0
-20 -2 -20 -4z"/>
<path d="M676 1542 c-2 -4 0 -14 6 -22 8 -12 9 -12 5 2 -3 9 -1 19 6 22 9 3 9
5 0 5 -6 1 -14 -3 -17 -7z"/>
<path d="M1869 1523 c-13 -16 -12 -17 4 -4 9 7 17 15 17 17 0 8 -8 3 -21 -13z"/>
<path d="M1895 1509 c-4 -6 -5 -12 -2 -15 2 -3 7 2 10 11 7 17 1 20 -8 4z"/>
<path d="M1916 1502 c-3 -5 1 -9 9 -9 8 0 15 4 15 9 0 4 -4 8 -9 8 -6 0 -12
-4 -15 -8z"/>
<path d="M690 1480 c-9 -6 -10 -10 -3 -10 6 0 15 5 18 10 8 12 4 12 -15 0z"/>
<path d="M2296 1453 c-6 -14 -5 -15 5 -6 7 7 10 15 7 18 -3 3 -9 -2 -12 -12z"/>
<path d="M1895 1449 c-4 -6 -5 -12 -2 -15 2 -3 7 2 10 11 7 17 1 20 -8 4z"/>
<path d="M290 1438 c0 -6 3 -8 7 -5 3 4 15 0 25 -10 11 -9 18 -11 18 -5 0 7
-5 12 -11 12 -5 0 -8 4 -5 8 2 4 -4 9 -15 9 -10 1 -19 -3 -19 -9z"/>
<path d="M2270 1415 c-11 -13 -10 -14 4 -9 9 3 16 10 16 15 0 13 -6 11 -20 -6z"/>
<path d="M295 1409 c-4 -6 -5 -12 -2 -15 2 -3 7 2 10 11 7 17 1 20 -8 4z"/>
<path d="M2290 1400 c-9 -6 -10 -10 -3 -10 6 0 15 5 18 10 8 12 4 12 -15 0z"/>
<path d="M2260 1380 c0 -5 5 -10 11 -10 5 0 7 5 4 10 -3 6 -8 10 -11 10 -2 0
-4 -4 -4 -10z"/>
<path d="M1893 1331 c0 -11 5 -18 9 -15 4 3 5 11 1 19 -7 21 -12 19 -10 -4z"/>
<path d="M290 1301 c0 -6 4 -13 10 -16 6 -3 7 1 4 9 -7 18 -14 21 -14 7z"/>
<path d="M310 1306 c0 -2 7 -6 15 -10 8 -3 15 -1 15 4 0 6 -7 10 -15 10 -8 0
-15 -2 -15 -4z"/>
<path d="M696 1293 c-6 -14 -5 -15 5 -6 7 7 10 15 7 18 -3 3 -9 -2 -12 -12z"/>
<path d="M2260 1300 c0 -5 5 -10 11 -10 5 0 7 5 4 10 -3 6 -8 10 -11 10 -2 0
-4 -4 -4 -10z"/>
<path d="M670 1255 c-11 -13 -10 -14 4 -9 9 3 16 10 16 15 0 13 -6 11 -20 -6z"/>
<path d="M1895 1249 c-4 -6 -5 -12 -2 -15 2 -3 7 2 10 11 7 17 1 20 -8 4z"/>
<path d="M2293 1245 c-3 -9 -3 -18 -1 -21 3 -3 8 4 11 16 6 23 -1 27 -10 5z"/>
<path d="M690 1240 c-9 -6 -10 -10 -3 -10 6 0 15 5 18 10 8 12 4 12 -15 0z"/>
<path d="M660 1220 c0 -5 5 -10 11 -10 5 0 7 5 4 10 -3 6 -8 10 -11 10 -2 0
-4 -4 -4 -10z"/>
<path d="M316 1182 c-3 -5 1 -9 9 -9 8 0 15 4 15 9 0 4 -4 8 -9 8 -6 0 -12 -4
-15 -8z"/>
<path d="M1890 1141 c0 -6 4 -13 10 -16 6 -3 7 1 4 9 -7 18 -14 21 -14 7z"/>
<path d="M684 1115 c-4 -8 -10 -12 -15 -9 -5 3 -9 1 -9 -5 0 -5 8 -9 18 -8 10
0 18 9 18 19 0 22 -5 23 -12 3z"/>
<path d="M1910 1102 c0 -5 7 -9 15 -9 8 0 15 4 15 9 0 4 -7 8 -15 8 -8 0 -15
-4 -15 -8z"/>
<path d="M1880 1086 c0 -2 8 -10 18 -17 15 -13 16 -12 3 4 -13 16 -21 21 -21
13z"/>
<path d="M290 1061 c0 -6 4 -13 10 -16 6 -3 7 1 4 9 -7 18 -14 21 -14 7z"/>
<path d="M310 1066 c0 -2 7 -6 15 -10 8 -3 15 -1 15 4 0 6 -7 10 -15 10 -8 0
-15 -2 -15 -4z"/>
<path d="M696 1053 c-6 -14 -5 -15 5 -6 7 7 10 15 7 18 -3 3 -9 -2 -12 -12z"/>
<path d="M2260 1060 c0 -5 5 -10 11 -10 5 0 7 5 4 10 -3 6 -8 10 -11 10 -2 0
-4 -4 -4 -10z"/>
<path d="M670 1015 c-11 -13 -10 -14 4 -9 9 3 16 10 16 15 0 13 -6 11 -20 -6z"/>
<path d="M1914 1012 c3 -5 2 -12 -4 -14 -6 -2 -1 -9 10 -16 12 -7 20 -8 20 -2
0 5 -5 10 -11 10 -5 0 -8 4 -4 9 3 5 0 13 -6 17 -7 4 -9 3 -5 -4z"/>
<path d="M315 989 c-4 -6 -5 -12 -2 -15 2 -3 7 2 10 11 7 17 1 20 -8 4z"/>
<path d="M660 980 c0 -5 5 -10 11 -10 5 0 7 5 4 10 -3 6 -8 10 -11 10 -2 0 -4
-4 -4 -10z"/>
<path d="M2260 980 c0 -5 5 -10 11 -10 5 0 7 5 4 10 -3 6 -8 10 -11 10 -2 0
-4 -4 -4 -10z"/>
<path d="M690 965 c-7 -8 -17 -12 -23 -8 -6 3 -7 1 -3 -5 8 -14 33 -5 40 14 7
18 2 18 -14 -1z"/>
<path d="M310 939 c0 -5 5 -7 10 -4 6 3 10 8 10 11 0 2 -4 4 -10 4 -5 0 -10
-5 -10 -11z"/>
<path d="M690 930 c-9 -6 -10 -10 -3 -10 6 0 15 5 18 10 8 12 4 12 -15 0z"/>
<path d="M670 895 c-11 -13 -10 -14 4 -9 9 3 16 10 16 15 0 13 -6 11 -20 -6z"/>
<path d="M1890 901 c0 -6 4 -13 10 -16 6 -3 7 1 4 9 -7 18 -14 21 -14 7z"/>
<path d="M2291 884 c0 -11 3 -14 6 -6 3 7 2 16 -1 19 -3 4 -6 -2 -5 -13z"/>
<path d="M305 879 c-4 -6 -5 -12 -2 -15 2 -3 7 2 10 11 7 17 1 20 -8 4z"/>
<path d="M1925 860 c3 -5 8 -10 11 -10 2 0 4 5 4 10 0 6 -5 10 -11 10 -5 0 -7
-4 -4 -10z"/>
<path d="M2260 856 c0 -2 7 -7 16 -10 8 -3 12 -2 9 4 -6 10 -25 14 -25 6z"/>
<path d="M313 829 c-2 -23 3 -25 10 -4 4 8 3 16 -1 19 -4 3 -9 -4 -9 -15z"/>
<path d="M695 820 c-3 -5 -1 -10 4 -10 6 0 11 5 11 10 0 6 -2 10 -4 10 -3 0
-8 -4 -11 -10z"/>
<path d="M2280 820 c-8 -5 -12 -12 -9 -15 4 -3 12 1 19 10 14 17 11 19 -10 5z"/>
<path d="M276 778 c3 -5 10 -6 15 -3 13 9 11 12 -6 12 -8 0 -12 -4 -9 -9z"/>
<path d="M310 779 c0 -5 5 -7 10 -4 6 3 10 8 10 11 0 2 -4 4 -10 4 -5 0 -10
-5 -10 -11z"/>
<path d="M670 759 c0 -5 5 -7 10 -4 6 3 10 8 10 11 0 2 -4 4 -10 4 -5 0 -10
-5 -10 -11z"/>
<path d="M704 761 c4 -5 0 -11 -6 -14 -7 -3 -3 -4 8 -4 21 1 23 27 2 27 -5 0
-7 -4 -4 -9z"/>
<path d="M1896 761 c8 -8 43 -8 38 0 -2 4 -13 7 -24 6 -10 -1 -17 -3 -14 -6z"/>
<path d="M301 724 c0 -11 3 -14 6 -6 3 7 2 16 -1 19 -3 4 -6 -2 -5 -13z"/>
<path d="M750 720 c-13 -8 -12 -10 3 -10 9 0 17 5 17 10 0 12 -1 12 -20 0z"/>
<path d="M790 726 c0 -3 9 -10 20 -16 11 -6 20 -8 20 -6 0 3 -9 10 -20 16 -11
6 -20 8 -20 6z"/>
<path d="M1493 715 c0 -8 4 -12 9 -9 5 3 6 10 3 15 -9 13 -12 11 -12 -6z"/>
<path d="M878 692 c4 -11 1 -13 -9 -8 -8 4 -5 0 6 -8 24 -20 36 -17 46 13 6
14 5 20 -1 16 -6 -3 -10 -13 -10 -21 0 -8 -5 -14 -11 -14 -6 0 -9 8 -7 18 3
11 0 19 -7 19 -8 0 -11 -7 -7 -15z"/>
<path d="M1030 706 c0 -2 7 -7 16 -10 8 -3 12 -2 9 4 -6 10 -25 14 -25 6z"/>
<path d="M1245 699 c-4 -6 -14 -8 -22 -4 -13 4 -14 3 -3 -10 7 -9 13 -14 14
-13 1 2 8 11 15 21 7 9 11 17 8 17 -3 0 -9 -5 -12 -11z"/>
<path d="M1750 700 c-9 -6 -10 -10 -3 -10 6 0 15 5 18 10 8 12 4 12 -15 0z"/>
<path d="M1956 703 c6 -4 14 -15 17 -23 5 -11 6 -9 4 4 -1 11 -9 21 -17 23
-10 3 -11 2 -4 -4z"/>
<path d="M835 691 c-3 -5 -2 -12 3 -15 5 -3 9 1 9 9 0 17 -3 19 -12 6z"/>
<path d="M1120 691 c0 -7 -5 -9 -12 -5 -7 4 -8 3 -4 -5 4 -6 11 -9 16 -6 4 3
10 -1 13 -7 2 -7 7 -11 10 -8 3 3 -1 14 -9 24 -8 11 -14 14 -14 7z"/>
<path d="M1271 693 c-1 -18 13 -23 29 -11 12 8 12 9 -2 5 -9 -3 -19 -1 -22 6
-3 9 -5 9 -5 0z"/>
<path d="M1395 690 c-3 -6 1 -7 9 -4 18 7 21 14 7 14 -6 0 -13 -4 -16 -10z"/>
<path d="M1548 693 c7 -3 16 -2 19 1 4 3 -2 6 -13 5 -11 0 -14 -3 -6 -6z"/>
<path d="M1717 693 c-10 -9 -9 -23 1 -23 5 0 9 7 9 15 0 17 -1 18 -10 8z"/>
<path d="M1330 679 c0 -5 5 -7 10 -4 6 3 10 8 10 11 0 2 -4 4 -10 4 -5 0 -10
-5 -10 -11z"/>
<path d="M1436 678 c3 -4 11 -5 19 -1 21 7 19 12 -4 10 -11 0 -18 -5 -15 -9z"/>
<path d="M1490 679 c0 -5 5 -7 10 -4 6 3 10 8 10 11 0 2 -4 4 -10 4 -5 0 -10
-5 -10 -11z"/>
<path d="M1646 678 c3 -5 10 -6 15 -3 13 9 11 12 -6 12 -8 0 -12 -4 -9 -9z"/>
<path d="M1890 678 c0 -4 4 -8 9 -8 6 0 12 4 15 8 3 5 -1 9 -9 9 -8 0 -15 -4
-15 -9z"/>
<path d="M1010 670 c0 -5 5 -10 11 -10 5 0 7 5 4 10 -3 6 -8 10 -11 10 -2 0
-4 -4 -4 -10z"/>
<path d="M1250 670 c0 -5 5 -10 11 -10 5 0 7 5 4 10 -3 6 -8 10 -11 10 -2 0
-4 -4 -4 -10z"/>
<path d="M1993 655 c0 -7 6 -11 14 -8 7 3 13 6 13 8 0 2 -6 5 -13 8 -8 3 -14
-1 -14 -8z"/>
<path d="M1930 645 c-7 -8 -17 -12 -23 -8 -6 3 -7 1 -3 -5 10 -17 19 -15 34 8
14 23 10 26 -8 5z"/>
<path d="M1966 643 c-6 -14 -5 -15 5 -6 7 7 10 15 7 18 -3 3 -9 -2 -12 -12z"/>
<path d="M2180 640 c-9 -6 -10 -10 -3 -10 6 0 15 5 18 10 8 12 4 12 -15 0z"/>
<path d="M310 626 c0 -2 7 -6 15 -10 8 -3 15 -1 15 4 0 6 -7 10 -15 10 -8 0
-15 -2 -15 -4z"/>
<path d="M1985 620 c-3 -6 1 -7 9 -4 18 7 21 14 7 14 -6 0 -13 -4 -16 -10z"/>
<path d="M266 602 c-3 -5 5 -8 17 -7 30 3 48 -5 40 -18 -4 -6 -1 -7 6 -2 8 4
9 11 4 16 -14 14 -61 21 -67 11z"/>
<path d="M2035 581 c-3 -5 -2 -12 3 -15 5 -3 9 1 9 9 0 17 -3 19 -12 6z"/>
<path d="M1946 568 c3 -5 10 -6 15 -3 13 9 11 12 -6 12 -8 0 -12 -4 -9 -9z"/>
<path d="M1995 560 c3 -5 8 -10 11 -10 2 0 4 5 4 10 0 6 -5 10 -11 10 -5 0 -7
-4 -4 -10z"/>
<path d="M320 550 c-9 -6 -10 -10 -3 -10 6 0 15 5 18 10 8 12 4 12 -15 0z"/>
<path d="M316 458 c3 -5 10 -6 15 -3 13 9 11 12 -6 12 -8 0 -12 -4 -9 -9z"/>
<path d="M1970 459 c0 -5 5 -7 10 -4 6 3 10 8 10 11 0 2 -4 4 -10 4 -5 0 -10
-5 -10 -11z"/>
<path d="M336 431 c-3 -5 7 -16 22 -25 l27 -17 -22 19 c-12 11 -19 22 -16 26
4 3 4 6 0 6 -3 0 -8 -4 -11 -9z"/>
<path d="M1975 420 c3 -5 8 -10 11 -10 2 0 4 5 4 10 0 6 -5 10 -11 10 -5 0 -7
-4 -4 -10z"/>
<path d="M1905 380 c-3 -6 1 -7 9 -4 18 7 21 14 7 14 -6 0 -13 -4 -16 -10z"/>
<path d="M887 319 c4 -13 8 -18 11 -10 2 7 -1 18 -6 23 -8 8 -9 4 -5 -13z"/>
<path d="M977 323 c3 -7 6 -13 8 -13 2 0 5 6 8 13 3 8 -1 14 -8 14 -7 0 -11
-6 -8 -14z"/>
<path d="M1137 323 c3 -7 6 -13 8 -13 2 0 5 6 8 13 3 8 -1 14 -8 14 -7 0 -11
-6 -8 -14z"/>
<path d="M1216 331 c-4 -5 -2 -12 3 -15 5 -4 12 -2 15 3 4 5 2 12 -3 15 -5 4
-12 2 -15 -3z"/>
<path d="M1367 319 c4 -13 8 -18 11 -10 2 7 -1 18 -6 23 -8 8 -9 4 -5 -13z"/>
<path d="M1455 330 c3 -5 8 -10 11 -10 2 0 4 5 4 10 0 6 -5 10 -11 10 -5 0 -7
-4 -4 -10z"/>
<path d="M1696 325 c4 -8 8 -15 10 -15 2 0 4 7 4 15 0 8 -4 15 -10 15 -5 0 -7
-7 -4 -15z"/>
<path d="M455 320 c3 -5 8 -10 11 -10 2 0 4 5 4 10 0 6 -5 10 -11 10 -5 0 -7
-4 -4 -10z"/>
<path d="M590 320 c0 -5 5 -10 11 -10 5 0 7 5 4 10 -3 6 -8 10 -11 10 -2 0 -4
-4 -4 -10z"/>
<path d="M654 319 c-3 -6 -3 -13 0 -16 3 -4 6 -1 6 5 0 6 7 9 15 6 8 -4 15 -4
15 -1 0 11 -30 16 -36 6z"/>
<path d="M706 322 c-3 -5 1 -9 9 -9 8 0 12 4 9 9 -3 4 -7 8 -9 8 -2 0 -6 -4
-9 -8z"/>
<path d="M1830 326 c0 -2 7 -7 16 -10 8 -3 12 -2 9 4 -6 10 -25 14 -25 6z"/>
<path d="M950 310 c-9 -6 -10 -10 -3 -10 6 0 15 5 18 10 8 12 4 12 -15 0z"/>
<path d="M1430 310 c-13 -8 -12 -10 3 -10 9 0 17 5 17 10 0 12 -1 12 -20 0z"/>
<path d="M1753 305 c0 -8 4 -12 9 -9 5 3 6 10 3 15 -9 13 -12 11 -12 -6z"/>
<path d="M1022 302 c-8 -6 -2 -9 18 -9 20 0 26 3 18 9 -7 4 -15 8 -18 8 -3 0
-11 -4 -18 -8z"/>
<path d="M1182 302 c-8 -6 -2 -9 18 -9 20 0 26 3 18 9 -7 4 -15 8 -18 8 -3 0
-11 -4 -18 -8z"/>
<path d="M1784 302 c4 -3 14 -7 22 -8 9 -1 13 0 10 4 -4 3 -14 7 -22 8 -9 1
-13 0 -10 -4z"/>
<path d="M1260 286 c0 -2 8 -10 18 -17 15 -13 16 -12 3 4 -13 16 -21 21 -21
13z"/>
</g>
</svg>
